<svg xmlns="http://www.w3.org/2000/svg" width="279.547" height="357.199" viewBox="0 0 279.547 357.199">
  <g id="_14036263261556105309" data-name="14036263261556105309" transform="translate(-7.823 -9.127)">
    <path id="Path_656" data-name="Path 656" d="M49.965,39.115Z" transform="translate(97.632 327.211)" fill="#fff"/>
    <path id="Path_657" data-name="Path 657" d="M25.367,96.784q-7.808,11.238-7.808,27.082h-.032q0,19.968,11.357,30.868,11.356,10.883,29.022,10.884a68.776,68.776,0,0,0,19.29-2.3q12.375-3.454,25.237-17.445c.615.773,1.688,2.255,3.234,4.495a50.7,50.7,0,0,0,3.312,4.48c.678.757,1.829,1.987,3.439,3.66a74.9,74.9,0,0,0,5.615,5.283q3.9,1.609,6.656-.473,1.609-1.372,20.663-17.9a3.938,3.938,0,0,0,1.829-3.2,6.874,6.874,0,0,0-1.372-3.675l-5.268-7a26.682,26.682,0,0,1-3.313-7.129,32.16,32.16,0,0,1-1.735-10.884V58c0-.6-.063-2.555-.221-5.836a32.463,32.463,0,0,0-.694-6.435c-.284-.994-.757-2.791-1.389-5.362a22.881,22.881,0,0,0-2.05-5.994,39.716,39.716,0,0,0-3.107-4.7,47.2,47.2,0,0,0-4.228-4.937Q109.091,11.2,82.955,11.2H77.23Q56.835,12.336,41.55,22.209,26.314,32.075,22.4,52.493a6.5,6.5,0,0,0-.237,1.61c0,2.145,1.309,3.517,3.9,4.148L52.45,61.469c2.445-.457,3.975-2.225,4.606-5.284a18.767,18.767,0,0,1,7.1-11.483,25.1,25.1,0,0,1,13.092-4.826h1.782q10.339,0,15.142,6.909C96.3,50.127,97.4,56.721,97.4,66.5v3.9c-9.337.757-16.088,1.356-20.19,1.829Q59.091,74.52,46.708,79.8A48.211,48.211,0,0,0,25.367,96.784Zm36.12,36.83c-2.981-3.628-4.463-8.391-4.463-14.353l-.016.016q0-19.732,20.189-25.458c4.574-1.214,11.31-1.845,20.19-1.845V97.7c0,4.89-.032,8.423-.11,10.568a43.739,43.739,0,0,1-1.372,8.36,36.89,36.89,0,0,1-3.785,9.527c-3.518,6.577-8.5,10.694-14.905,12.382a11.271,11.271,0,0,0-1.736.237,12.411,12.411,0,0,1-1.956.205A14.861,14.861,0,0,1,61.487,133.614Z" transform="translate(75.166 -2.073)" fill="#fff" fill-rule="evenodd"/>
    <path id="Path_658" data-name="Path 658" d="M33.3,40.57a7.872,7.872,0,0,1,1.372-1.845,36.276,36.276,0,0,1,11.042-5.268A75.585,75.585,0,0,1,62.67,30.932a13.673,13.673,0,0,1,4.354.237c6.893.632,11.042,1.767,12.4,3.471a7.215,7.215,0,0,1,.915,4.1v1.609q0,8.045-4.354,18.927A44.478,44.478,0,0,1,63.838,76.832a3.432,3.432,0,0,1-2.083.915,2.058,2.058,0,0,1-.915-.221c-.946-.473-1.151-1.309-.694-2.523,5.678-13.313,8.486-22.555,8.486-27.761a5.956,5.956,0,0,0-.915-3.676c-1.53-1.814-5.8-2.744-12.855-2.744-2.586,0-5.646.158-9.148.473-3.848.473-7.366.915-10.567,1.372a2.6,2.6,0,0,1-1.846-.473.724.724,0,0,1-.221-.915A1.561,1.561,0,0,1,33.3,40.6Z" transform="translate(207.034 172.23)" fill="#f90"/>
    <path id="Path_659" data-name="Path 659" d="M10.129,32.394c.847-1.23,2.2-1.309,4.092-.237Q78.348,65.423,153.78,65.438a305.231,305.231,0,0,0,99.295-16.766l3.7-1.372c1.622-.631,2.769-1.072,3.456-1.372,2.575-.915,4.586-.473,6.05,1.372q2.169,2.744-1.411,5.048-4.631,2.981-11.817,6.877a205.126,205.126,0,0,1-49.241,18.139,231.549,231.549,0,0,1-53.087,6.42A227.069,227.069,0,0,1,75.067,71.274a213.378,213.378,0,0,1-63.9-35.221A3.057,3.057,0,0,1,9.6,33.766,2.21,2.21,0,0,1,10.129,32.394Z" transform="translate(-1.777 177.575)" fill="#f90"/>
  </g>
</svg>
