<svg id="Page-1" xmlns="http://www.w3.org/2000/svg" width="227.416" height="266.243" viewBox="0 0 227.416 266.243">
  <g id="Social-Icons---Isolated" transform="translate(0)">
    <path id="Apple" d="M205.73,994.22C214.414,983.015,221,967.167,218.615,951c-14.192.987-30.78,10.066-40.459,21.9-8.823,10.728-16.075,26.68-13.243,42.161,15.515.487,31.527-8.813,40.817-20.839Zm76.685,152.118c-6.209,13.839-9.2,20.023-17.195,32.282-11.157,17.111-26.889,38.416-46.4,38.572-17.319.188-21.785-11.349-45.3-11.21s-28.414,11.432-45.765,11.259c-19.5-.171-34.405-19.4-45.562-36.508-31.216-47.812-34.5-103.935-15.25-133.787,13.694-21.194,35.293-33.6,55.584-33.6,20.649,0,33.643,11.4,50.745,11.4,16.588,0,26.687-11.426,50.573-11.426,18.082,0,37.237,9.906,50.869,27-44.692,24.645-37.455,88.842,7.7,106.015Z" transform="translate(-55 -951)" fill="#fff" fill-rule="evenodd"/>
  </g>
</svg>
