<svg xmlns="http://www.w3.org/2000/svg" width="1920" height="1497" viewBox="0 0 1920 1497">
  <g id="evolution_desktop_background_" data-name="evolution desktop background " transform="translate(0 -2174)">
    <path id="Path_10" data-name="Path 10" d="M0-2,1920-.693V1495H0Z" transform="translate(0 2176)" fill="#151515"/>
    <g id="MVX_LINE_ART_DESKTOP" data-name="MVX LINE ART DESKTOP" transform="translate(208 2396.788)">
      <ellipse id="Ellipse_11" data-name="Ellipse 11" cx="15.202" cy="15.202" rx="15.202" ry="15.202" transform="translate(117.486 10.094) rotate(90)" fill="none" stroke="#6cbf25" stroke-width="1"/>
      <path id="Path_640" data-name="Path 640" d="M0,117.486H58.331Q87.817,58.734,117.293,0H62.243C58.7,7.245,12.919,100.626,9.165,105.454a10.571,10.571,0,0,1-3.2,2.726,10.239,10.239,0,0,1-5.96.9Z" transform="translate(119.903 400.919) rotate(90)" fill="none" stroke="#242324" stroke-width="1"/>
      <path id="Path_641" data-name="Path 641" d="M66.183,8.173,66.253,0H0Q.076,4.279.152,8.57a6.462,6.462,0,0,1,3.724,1.565,7.076,7.076,0,0,1,2.131,5.809q.736,45.628.2,92.2-.053,4.67-.123,9.34H70.083l-.2-8.523a24.741,24.741,0,0,1-3.129,0c-2.113-.088-3.783-.368-4.98-1.553-1.687-1.67-1.378-4.343-1.3-4.933l-.123-86.4a7.45,7.45,0,0,1,1.133-4.7,7.589,7.589,0,0,1,4.7-3.2Z" transform="translate(117.486 118.918) rotate(90)" fill="none" stroke="#242324" stroke-width="1"/>
      <path id="Path_642" data-name="Path 642" d="M62.038,117.4c4.729-9.416,8.862-18.331,13.59-26.912,9.282-16.848,18.815-33.562,28.459-50.205,1.529-2.627.724-4.215-.753-6.1L81.3,6c-.666-.858-1.384-1.675-2-2.563-3.24-4.67-5.838-4.553-8.7.216C60.614,20.433,50.7,37.263,40.538,53.942,29.674,71.759,18.558,89.43,7.525,107.147a6.912,6.912,0,0,1-1.845,1.962,8.535,8.535,0,0,1-5.645,1.308L0,117.5Z" transform="translate(119.903) rotate(90)" fill="none" stroke="#6cbf25" stroke-width="1"/>
      <g id="Group_45" data-name="Group 45" transform="translate(94.419 241.815)">
        <path id="Path_639" data-name="Path 639" d="M335.612,117.76l64.023-.274,23.439-31.909,29.668,31.909H518.96l-5.838-6.281L410.236,0h-67.5l.035,8.494c1.523.058,2.761.053,3.619.041a10.626,10.626,0,0,1,2.68.111,6.824,6.824,0,0,1,2.569,1.168l4,3.87c5.464,5.3,9.551,9.667,17.14,17.945,4.086,4.443,8.669,9.451,13.672,14.956l-42.277,58.828a17.083,17.083,0,0,1-4.022,2.464,17.446,17.446,0,0,1-4.554,1.278Z" transform="translate(-335.6 17.033)" fill="none" stroke="#6cbf25" stroke-width="1"/>
        <path id="Path_643" data-name="Path 643" d="M408.919,0H343.133L329.91,16.93Q345.3,32.773,360.465,49.942q1.751,1.973,3.45,3.935a2.574,2.574,0,0,0,1.693.765,2.721,2.721,0,0,0,2.177-1.168c16.754-22.184,28.915-38.284,30.824-41a8.479,8.479,0,0,1,3.03-2.761,8.232,8.232,0,0,1,4.022-.934l3.053.041Q408.82,4.419,408.919,0Z" transform="translate(-224.933)" fill="none" stroke="#242324" stroke-width="1"/>
      </g>
      <path id="Path_646" data-name="Path 646" d="M0,117.486H58.331Q87.817,58.734,117.293,0H62.243C58.7,7.245,12.919,100.626,9.165,105.454a10.571,10.571,0,0,1-3.2,2.726,10.239,10.239,0,0,1-5.96.9Z" transform="translate(117.486 424.456) rotate(90)" fill="none" stroke="#6cbf25" stroke-width="1"/>
    </g>
  </g>
</svg>
