<svg id="Layer_1" data-name="Layer 1" xmlns="http://www.w3.org/2000/svg" viewBox="0 0 500 500"><defs><style>.cls-1{fill:#fff;}</style></defs><title>MXV LOGOArtboard 7LOGO WHITE</title><ellipse class="cls-1" cx="23.08" cy="292.56" rx="13.45" ry="15.49"/><path class="cls-1" d="M336.18,310.79l-56.61-.28L258.84,278,232.6,310.51H174l5.14-6.4q45.51-56.67,91-113.33h59.7l0,8.65c-1.34.06-2.44.06-3.2,0a8.45,8.45,0,0,0-2.37.12,5.84,5.84,0,0,0-2.27,1.18l-3.54,3.95c-4.86,5.4-8.43,9.87-15.16,18.29-3.61,4.53-7.67,9.63-12.09,15.24l37.38,60a15.12,15.12,0,0,0,3.56,2.5,13.88,13.88,0,0,0,4,1.31Z"/><path class="cls-1" d="M345.58,190.78h51.6q26.08,59.86,52.16,119.73H400.65C397.51,303.12,357,208,353.69,203a9.8,9.8,0,0,0-2.83-2.78,8,8,0,0,0-5.28-.91Z"/><path class="cls-1" d="M154.3,302.16c0,2.78,0,5.57.07,8.35H95.77q.06-4.36.13-8.73a5.37,5.37,0,0,0,3.29-1.6,8,8,0,0,0,1.89-5.92q.65-46.5.18-94c0-3.17-.07-6.35-.11-9.52h56.6l-.18,8.68a19.18,19.18,0,0,0-2.76,0c-1.87.09-3.35.37-4.41,1.58-1.49,1.7-1.22,4.43-1.15,5l-.1,88a8.54,8.54,0,0,0,1,4.79A6.7,6.7,0,0,0,154.3,302.16Z"/><path class="cls-1" d="M55.58,190.88c4.19,9.6,7.84,18.68,12,27.42q12.33,25.75,25.18,51.17c1.35,2.68.64,4.3-.67,6.22L72.63,304.41c-.59.87-1.23,1.71-1.78,2.62-2.87,4.73-5.18,4.63-7.69-.23-8.84-17.1-17.6-34.25-26.6-51.25C27,237.39,17.12,219.38,7.36,201.33a6.59,6.59,0,0,0-1.63-2,6.78,6.78,0,0,0-5-1.34l0-7.21Z"/><path class="cls-1" d="M171.07,190.78h58.19L241,208q-13.6,16.14-27,33.65c-1,1.33-2,2.67-3,4a2.17,2.17,0,0,1-1.5.78,2.35,2.35,0,0,1-1.93-1.17c-14.82-22.61-25.58-39-27.26-41.79a8.32,8.32,0,0,0-2.68-2.81,6.45,6.45,0,0,0-3.56-.95l-2.7,0Z"/><path class="cls-1" d="M435.45,190.78h63.71c0,2.82,0,5.64,0,8.47a10.81,10.81,0,0,0-6.7,1.92,12.59,12.59,0,0,0-3.69,4.35c-1.74,3.2-9,19.32-18.58,41.64l-3.27,7.23a2.51,2.51,0,0,1-1.58,1,2.94,2.94,0,0,1-2.82-2.23Z"/></svg>