<svg xmlns="http://www.w3.org/2000/svg" width="64.222" height="307.274" viewBox="0 0 64.222 307.274">
  <g id="LOGO_VERTICAL" data-name="LOGO VERTICAL" transform="translate(64.192) rotate(90)">
    <g id="Layer_1" data-name="Layer 1" transform="translate(0 -0.03)">
      <circle id="Ellipse_11" data-name="Ellipse 11" cx="8.289" cy="8.289" r="8.289" transform="translate(5.504 46.183)" fill="#242324"/>
      <path id="Path_639" data-name="Path 639" d="M435.577,64.213l-34.911-.15-12.781-17.4-16.177,17.4H335.6l3.183-3.425L394.885,0h36.808l-.019,4.632c-.831.032-1.506.029-1.974.022a5.794,5.794,0,0,0-1.461.06,3.721,3.721,0,0,0-1.4.637l-2.184,2.11c-2.98,2.89-5.208,5.271-9.346,9.785-2.228,2.422-4.727,5.154-7.455,8.156L430.907,57.48a9.316,9.316,0,0,0,2.193,1.343,9.514,9.514,0,0,0,2.483.7Z" transform="translate(-228.77 0.01)" fill="#242324"/>
      <path id="Path_640" data-name="Path 640" d="M667.87,0h31.807q16.078,32.036,32.151,64.063H701.81c-1.932-3.95-26.9-54.87-28.942-57.5a5.764,5.764,0,0,0-1.747-1.487,5.583,5.583,0,0,0-3.25-.49Z" transform="translate(-455.27 0.01)" fill="#242324"/>
      <path id="Path_641" data-name="Path 641" d="M220.169,59.573l.038,4.457H184.08q.041-2.333.083-4.673a3.524,3.524,0,0,0,2.031-.853,3.859,3.859,0,0,0,1.162-3.167q.4-24.88.111-50.273-.029-2.547-.067-5.093h34.895l-.111,4.648a13.491,13.491,0,0,0-1.706,0,3.858,3.858,0,0,0-2.715.847,3.294,3.294,0,0,0-.707,2.69l-.067,47.112a4.062,4.062,0,0,0,.618,2.563,4.138,4.138,0,0,0,2.563,1.744Z" transform="translate(-125.483 0.03)" fill="#242324"/>
      <path id="Path_642" data-name="Path 642" d="M33.828.054c2.578,5.135,4.832,10,7.411,14.675C46.3,23.916,51.5,33.029,56.757,42.1c.834,1.432.395,2.3-.411,3.327L44.333,60.8c-.363.468-.754.914-1.092,1.4-1.767,2.547-3.183,2.483-4.743-.118C33.052,52.928,27.647,43.751,22.1,34.656,16.18,24.941,10.12,15.305,4.1,5.644A3.769,3.769,0,0,0,3.1,4.574,4.654,4.654,0,0,0,.019,3.861L0,0Z" transform="translate(0 0.01)" fill="#242324"/>
      <path id="Path_643" data-name="Path 643" d="M329.91,0h35.872l7.21,9.231q-8.394,8.639-16.661,18-.955,1.076-1.881,2.146a1.4,1.4,0,0,1-.923.417,1.483,1.483,0,0,1-1.187-.637C343.2,17.062,336.573,8.283,335.532,6.8a4.623,4.623,0,0,0-1.652-1.506,4.489,4.489,0,0,0-2.193-.509l-1.665.022Q329.964,2.41,329.91,0Z" transform="translate(-224.891 0.01)" fill="#242324"/>
      <path id="Path_644" data-name="Path 644" d="M841.9,0h39.275V4.53a7.471,7.471,0,0,0-4.138,1.031,7.06,7.06,0,0,0-2.273,2.327c-1.073,1.713-5.577,10.339-11.46,22.283l-2.015,3.864a1.591,1.591,0,0,1-.974.516,1.8,1.8,0,0,1-1.741-1.191Z" transform="translate(-573.901 0.01)" fill="#242324"/>
    </g>
  </g>
</svg>
