<svg xmlns="http://www.w3.org/2000/svg" width="303.023" height="303.023" viewBox="0 0 303.023 303.023">
  <path id="_8161147691556105722" data-name="8161147691556105722" d="M0,151.509A151.511,151.511,0,1,1,151.511,303.023,151.511,151.511,0,0,1,0,151.509ZM65.116,116.8c46.623-14.15,127.18-11.483,176.018,17.52A14.171,14.171,0,0,0,255.6,109.944C199.376,76.568,110.408,73.431,56.888,89.676A14.171,14.171,0,0,0,65.116,116.8Zm158.17,64.368a11.811,11.811,0,0,0,12.363-20.129c-46.765-28.74-115.174-36.827-170.2-20.128a11.81,11.81,0,1,0,6.864,22.6C120.482,148.887,182.571,156.139,223.286,181.165ZM221,218.532a9.435,9.435,0,0,1-12.985,3.143c-35.579-21.745-80.361-26.655-133.1-14.61a9.441,9.441,0,1,1-4.2-18.407c57.715-13.193,107.22-7.516,147.156,16.887A9.446,9.446,0,0,1,221,218.532Z" fill="#2ebd59" fill-rule="evenodd"/>
</svg>
