<svg id="add_photo_alternate_black_24dp" xmlns="http://www.w3.org/2000/svg" width="30.439" height="30.439" viewBox="0 0 30.439 30.439">
  <path id="Path_660" data-name="Path 660" d="M0,0H30.439V30.439H0Z" fill="none"/>
  <path id="Path_661" data-name="Path 661" d="M22.293,25.1H4.537V7.342H15.951V4.8H4.537A2.544,2.544,0,0,0,2,7.342V25.1a2.544,2.544,0,0,0,2.537,2.537H22.293A2.544,2.544,0,0,0,24.83,25.1V13.683H22.293Zm-9.88-4.021L9.927,18.084,6.439,22.561H20.391L15.9,16.588ZM24.83,4.8V1H22.293V4.8h-3.8c.013.013,0,2.537,0,2.537h3.8v3.792c.013.013,2.537,0,2.537,0V7.342h3.8V4.8Z" transform="translate(0.537 0.268)" fill="#7a7a7a"/>
</svg>
